<svg xmlns="http://www.w3.org/2000/svg" width="48" height="48" viewBox="0 0 48 48" fill="none">
  <circle cx="24" cy="24" r="24" fill="#7BAE3C"/>
  <path d="M24 8c-8 0-14 6-14 14s6 14 14 14c2 0 4-.4 6-1-4-2-7-6-8-11 1-2 2-4 4-5-2 1-3 3-3 5 0 6 5 10 11 10s11-4 11-10c0-2-1-4-3-5 2 1 3 3 4 5-1 5-4 9-8 11 2 .6 4 1 6 1 8 0 14-6 14-14S32 8 24 8z" fill="white" opacity="0.9"/>
  <ellipse cx="24" cy="22" rx="3" ry="8" fill="white"/>
  <path d="M24 14c-3 0-6 2-6 6 0 1 0 2 .5 3 1.5 3 5.5 5 5.5 5s4-2 5.5-5c.5-1 .5-2 .5-3 0-4-3-6-6-6z" fill="white"/>
</svg>
